<svg id="Layer_1" data-name="Layer 1" xmlns="http://www.w3.org/2000/svg" viewBox="0 0 328 182.22"><defs><style>.cls-1{fill:#0ae88d;}.cls-2{fill:#1695f4;}.cls-3{fill:#ff003d;}.cls-4{fill:#ff9906;}.cls-5{fill:#010633;}.cls-6{fill:#fcdf54;}.cls-7{fill:#f9f7f7;}</style></defs><title>citylogo</title><path class="cls-1" d="M60.5,76.39l-3.94,6.82,3.35,1.23,10.26-3.73,8.7-3.18,19,6.91,19-6.91L131,82.69l4.77,1.74,6.93-2.52-3.18-5.53-1.19-2.07L100,8,61.5,74.68ZM100,29l24.27,42-7.46-2.73-19,6.91-19-6.91-2,.73Z" transform="translate(-10.39 -7.98)"/><path class="cls-1" d="M151.64,97.43l-3.3-5.72-10.05,3.64-2.54.93L116.8,89.38l-19,6.91-19-6.91L61.5,95.72l-1.59.57-9-3.28-2.56,4.42-1.83,3.18L25.22,137.51H174.78L152.73,99.29ZM156.56,127H43.44l13.13-22.75,3.35,1.23,19-6.91,19,6.91,19-6.91,18.95,6.91,6.93-2.52Z" transform="translate(-10.39 -7.98)"/><path class="cls-1" d="M36.7,168.9c0,8.55-4,12.14-13.3,12.14s-13-3.59-13-11.63V153.58c0-8.25,3.59-11.63,13-11.63S36.7,145.38,36.7,154h-7c0-3.79-.91-5.92-6.32-5.92-5.06,0-6,2.12-6,5.82v15.13c0,3.69,1,5.82,6,5.82s6.32-2.12,6.32-6Z" transform="translate(-10.39 -7.98)"/><path class="cls-2" d="M48.53,148.37H41.6V142h6.93Zm0,32.63H41.6V151.35h6.93Z" transform="translate(-10.39 -7.98)"/><path class="cls-3" d="M56.32,146.19h6.93V151h5.06v6.32H63.25v12.59c0,3.29.61,4.35,3.49,4.35v6.68c-8,0-10.42-2.38-10.42-10.93v-12.7H53.74V151h2.58Z" transform="translate(-10.39 -7.98)"/><path class="cls-4" d="M94.76,180c0,9.26-6.53,10.17-12,10.17H75.14V184h8.09c2.63,0,4.6-.25,4.6-4.2V178a16.55,16.55,0,0,1-4.65.56c-7.84,0-11.58-3.59-11.58-11.63V151.35h7v15.23c0,3.69,1,5.82,4.6,5.82s4.6-2.12,4.6-5.82V151.35h7Z" transform="translate(-10.39 -7.98)"/><path class="cls-1" d="M120.26,148.37h-8v32.58h-6.93V148.37H97.19v-6.22h23.07Z" transform="translate(-10.39 -7.98)"/><path d="M122.68,169.82v-7.18c0-7.84,3.74-11.63,11.58-11.63s11.58,3.59,11.58,11.63v7.18c0,8-3.74,11.63-11.58,11.63S122.68,177.86,122.68,169.82Zm16.19-.35V163c0-3.69-1-5.82-4.6-5.82s-4.6,2.13-4.6,5.82v6.47c0,3.69,1,5.82,4.6,5.82S138.87,173.15,138.87,169.46Z" transform="translate(-10.39 -7.98)"/><path class="cls-5" d="M166.34,170.07V151.35h7v19.58c0,8-4.55,10.17-11.58,10.17s-11.58-2.12-11.58-10.17V151.35h7v18.72c0,3.49,1,4.86,4.6,4.86S166.34,173.56,166.34,170.07Z" transform="translate(-10.39 -7.98)"/><path class="cls-6" d="M192,157.17c-4.5,0-6.73,1.92-6.73,5.87v18h-6.93V151.35h6.93v1.52A11.64,11.64,0,0,1,192,151Z" transform="translate(-10.39 -7.98)"/><path class="cls-1" d="M312.06,95.55l-.79,1.37.67.25,2.05-.75,1.74-.64,3.8,1.38,3.8-1.38,2.84,1,1,.35,1.39-.5-.64-1.11-.24-.41L320,81.85,312.26,95.2ZM320,86.07l4.86,8.41-1.49-.55-3.8,1.38-3.8-1.38-.4.15Z" transform="translate(-10.39 -7.98)"/><path class="cls-1" d="M330.31,99.76l-.66-1.14-2,.73-.51.19-3.79-1.38-3.8,1.38-3.8-1.38-3.48,1.27-.32.11-1.8-.66-.51.89-.37.64L305,107.78h29.94l-4.41-7.65Zm1,5.92H308.65l2.63-4.55.67.25,3.8-1.38,3.8,1.38,3.8-1.38,3.79,1.38,1.39-.5Z" transform="translate(-10.39 -7.98)"/><path class="cls-1" d="M307.3,114.06c0,2-.28.85-2.67.64-2.37.28-2.54,1.32-2.6-.54V111c0-1.72.71-2.38,2.6-2.33s2.69.61,2.66,2.42a5.31,5.31,0,0,0-1.33-.43c0-.62-.21-1-1.34-1s-1.25.42-1.27,1l-.09,2.49c0,.66.14.72,1.35.63,1.22.06,1.44,0,1.42-.65A2.9,2.9,0,0,1,307.3,114.06Z" transform="translate(-10.39 -7.98)"/><path class="cls-2" d="M309.67,110a3.18,3.18,0,0,0-1.39,0v-1.27h1.39Q309.67,109.32,309.67,110Zm0,6.53a.75.75,0,0,0-1.39,0v-5.93a2.19,2.19,0,0,1,1.39,0Q309.67,113.52,309.67,116.48Z" transform="translate(-10.39 -7.98)"/><path class="cls-3" d="M311.23,109.52h1.39v.84a7.15,7.15,0,0,1,1,.12v1.27a3,3,0,0,0-1-.29l0,2.2c0,.6.2.72.72,1.18l0,1.26c-1.7-1.36-2.42-.34-2.27-2.2l0-2.33a2.65,2.65,0,0,0-.48.18v-1.27l.5-.08Z" transform="translate(-10.39 -7.98)"/><path class="cls-4" d="M318.92,116.29c.09,1.88-.92.27-2.42.46a2.47,2.47,0,0,0-1.7.76l0-1.11a2.7,2.7,0,0,1,1.78-.64c.64,0,1.07.18,1.05-.48V115a8.37,8.37,0,0,0-1.06-.09c-1.89.14-2.29.55-2.32-1.23v-3.12h1.4l-.07,2.53c0,.64.17.86,1,.83s1-.2,1-.83l-.07-2.53h1.4Z" transform="translate(-10.39 -7.98)"/><path class="cls-1" d="M324,110a9.69,9.69,0,0,0-1.59-.23l.12,5.32a2.56,2.56,0,0,0-1.68,0l.12-5.32a9.7,9.7,0,0,0-1.6.23v-1.25H324Z" transform="translate(-10.39 -7.98)"/><path class="cls-7" d="M324.51,114.25v-1.44c0-1.66.74-2.39,2.32-2.33s2.35.63,2.32,2.33v1.44c0,1.83-.29.94-2.32.75C324.81,115.19,324.55,116.08,324.51,114.25Zm3.35-.88,0-1c0-.58-.23-1-1-1s-1,.38-1,1l0,1c0,.61.16.76,1,.71S327.88,114,327.86,113.37Z" transform="translate(-10.39 -7.98)"/><path class="cls-5" d="M333.36,113.46l-.11-2.91h1.4v3.92c0,1.77-.47.53-2.32.46s-2.32,1.31-2.32-.46v-3.92h1.4l-.11,2.91c0,.57.17.6,1,.56S333.38,114,333.36,113.46Z" transform="translate(-10.39 -7.98)"/><path class="cls-6" d="M338.39,111.72c-.84-.23-1.35.15-1.34.8q0,1.52,0,3a1.45,1.45,0,0,0-1.39.93v-5.93H337v.26a2.74,2.74,0,0,1,1.35-.32Z" transform="translate(-10.39 -7.98)"/></svg>